<?xml version="1.0" encoding="utf-8"?>
<!-- Generator: Adobe Illustrator 21.0.2, SVG Export Plug-In . SVG Version: 6.00 Build 0)  -->
<svg version="1.1" id="Ebene_1" xmlns:sketch="http://www.bohemiancoding.com/sketch/ns"
	 xmlns="http://www.w3.org/2000/svg" xmlns:xlink="http://www.w3.org/1999/xlink" x="0px" y="0px" viewBox="0 0 188 37"
	 style="enable-background:new 0 0 188 37;" xml:space="preserve">
<style type="text/css">
	.st0{fill:#2F3883;}
</style>
<title>brugglifting - LOGO</title>
<desc>Created with Sketch.</desc>
<rect x="23.5" y="11" width="4.1" height="21"/>
<path d="M38,12.3c-1.2,1.1-1.8,2.5-1.8,4.1c0,0.9,0.2,1.7,0.5,2.4c0.3,0.7,0.7,1.4,1.3,1.9c0.6,0.5,1.6,1.2,3.2,2
	c1.5,0.8,2.6,1.5,3,2.1c0.5,0.6,0.7,1.2,0.7,1.9c0,1.3-1,2-3,2c-1.3,0-2.7-0.5-4.1-1.5L37.6,27l-1.5,3.7l0.2,0.1
	c1.6,1,3.4,1.5,5.3,1.5c2.2,0,4.1-0.6,5.4-1.7c1.4-1.1,2.1-2.6,2.1-4.3c0-1-0.2-1.8-0.5-2.6c-0.3-0.8-0.8-1.5-1.4-2.1
	c-0.6-0.6-1.6-1.2-3-1.9c-2.5-1.2-3.8-2.4-3.8-3.4c0-0.7,0.2-1.2,0.6-1.6c0.4-0.4,1-0.6,1.8-0.6c1.4,0,2.7,0.4,3.9,1.3l0.3,0.2
	l1.3-3.6L48,12.1c-1.1-0.9-3-1.4-5.4-1.4C40.8,10.7,39.2,11.2,38,12.3"/>
<path d="M66.7,10.7c-2.8,0-5.1,1.1-6.9,3.1c-1.8,2.1-2.7,4.7-2.7,7.8c0,3.3,0.8,5.9,2.4,7.8c1.6,1.9,3.9,2.9,6.9,2.9
	c2.9,0,5.2-0.8,6.7-2.4l0.1-0.1l-2-3.4l-0.2,0.3c-1,1.3-2.5,2-4.4,2c-1.6,0-2.9-0.6-3.9-1.8c-1-1.2-1.5-2.9-1.5-5.1
	c0-2.1,0.5-3.9,1.6-5.3c1-1.4,2.4-2.1,4-2.1c1.7,0,3,0.4,3.8,1.2l0.2,0.2l1.7-3.5l-0.2-0.1C71.1,11.2,69.1,10.7,66.7,10.7"/>
<polygon points="93.1,11 93.1,19.1 85.5,19.1 85.5,11 81.4,11 81.4,32 85.5,32 85.5,22.8 93.1,22.8 93.1,32 97.2,32 97.2,11 "/>
<path d="M114.5,17.7c0.3,1.1,2.1,6.4,2.3,6.9h-4.5C112.5,24.1,114.2,18.8,114.5,17.7 M113.5,10.8L105.1,32h4.5c0,0,1.3-3.9,1.4-4.2
	h6.9c0.1,0.3,1.5,4.2,1.5,4.2h4.5l-8.4-21.2H113.5z M6.4,22.1c1.6,0,2.8,0.3,3.4,0.8c0.6,0.5,0.9,1.3,0.9,2.4c0,1.2-0.3,2.1-1,2.6
	c-0.7,0.5-1.8,0.8-3.4,0.8c0,0-1.2-0.1-1.6-0.1v-6.3C5.1,22.2,6.4,22.1,6.4,22.1 M6.6,14.4c2,0,3,0.7,3,2.1c0,1.6-1.1,2.4-3.3,2.4
	c0,0-1.2,0-1.5,0v-4.5C5.1,14.4,6.6,14.4,6.6,14.4 M0.7,11.1v0.2V32h6.5c2.3,0,4.1-0.6,5.6-1.7c1.5-1.1,2.2-2.7,2.2-4.6
	c0-2.7-1.3-4.6-3.6-5.5c1.5-1,2.4-2.2,2.4-3.8c0-1.8-0.6-3.1-1.9-4.1c-1.2-0.9-3-1.4-5.1-1.4L0.7,11.1z"/>
<path d="M133,13.7c-1.9,2-2.9,4.7-2.9,7.9c0,3.2,0.9,5.8,2.6,7.8c1.8,2,4.2,3,7.2,3c1.3,0,2.8-0.2,4.1-0.6c1.4-0.4,2.5-1,3.5-1.7
	l0.1-0.1v-9.5h-6.9V24h2.8v3.7c-0.8,0.6-1.8,1-2.9,1c-1.9,0-3.4-0.6-4.5-1.9c-1.1-1.3-1.7-3-1.7-5.1c0-2.2,0.6-4,1.7-5.3
	c1.1-1.3,2.7-2,4.6-2c0.6,0,1.3,0.2,2.2,0.5c0.8,0.4,1.5,0.7,1.9,1.1l0.2,0.2l1.7-3.3l-0.1-0.1c-1.6-1.4-3.6-2.1-5.9-2.1
	C137.6,10.7,135,11.7,133,13.7"/>
<path class="st0" d="M165.7,16.2c0.3,0.4,5,5,5,5c0.4,0.4,0.9,0.6,1.4,0.6c1.2,0,2-0.9,2-2c0-0.5-0.2-1.1-0.6-1.4l-3.4-3.4
	c-0.5-0.5-0.8-1.2-0.8-2V4.3c-7.3,1.3-12.9,7.7-12.9,15.4c0,8.6,7,15.7,15.6,15.7c8.7,0,15.7-7,15.7-15.7c0-7.7-5.6-14.1-12.9-15.4
	v7.8c0,0,0,0,0,0c0,0,0,0,0,0c0,0,2.4,2.4,2.4,2.4c1.4,1.4,2.2,3.2,2.2,5.2c0,4-3.3,7.3-7.4,7.3c-4,0-7.4-3.3-7.4-7.3
	c0-1.1,0.2-2.1,0.7-3.1C165.5,16.5,165.6,16.4,165.7,16.2"/>
</svg>
