<?xml version="1.0" encoding="UTF-8" standalone="no"?>
<svg width="188px" height="37px" viewBox="0 0 188 37" version="1.1" xmlns="http://www.w3.org/2000/svg" xmlns:xlink="http://www.w3.org/1999/xlink" xmlns:sketch="http://www.bohemiancoding.com/sketch/ns">
    <!-- Generator: Sketch 3.4 (15575) - http://www.bohemiancoding.com/sketch -->
    <title>brugglifting - LOGO</title>
    <desc>Created with Sketch.</desc>
    <defs></defs>
    <g id="Board" stroke="none" stroke-width="1" fill="none" fill-rule="evenodd" sketch:type="MSPage">
        <g id="Dashboard---MENU" sketch:type="MSArtboardGroup" transform="translate(-55.000000, -34.000000)">
            <g id="brugglifting---LOGO" sketch:type="MSLayerGroup" transform="translate(56.316667, 34.250000)">
                <g id="Group" fill="#009DE0" sketch:type="MSShapeGroup">
                    <path d="M57.5044902,32.2422987 C38.4120641,36.8583636 18.3429595,34.4455714 0.994229198,25.4466623 L0.11479173,27.1398831 C17.873357,36.3516299 38.4139614,38.8213052 57.9536959,34.0962143 C77.4967507,29.3706494 94.6324997,17.7864026 106.20417,1.47801299 L104.645469,0.374480519 C93.3408555,16.3069675 76.5988138,27.6233896 57.5044902,32.2422987" id="Shape"></path>
                    <path d="M9.71745198,16.1211494 L12.6688327,16.1211494 C13.7048044,16.1211494 14.5055004,15.8386299 14.5055004,14.8346429 C14.5055004,13.8932273 13.6421907,13.5324935 12.8253669,13.5324935 L9.71697764,13.5324935 L9.71697764,16.1211494 L9.71745198,16.1211494 Z M9.71745198,11.5249935 L11.7742162,11.5249935 C13.1868186,11.5249935 14.0188214,11.132974 14.0188214,10.2541299 C14.0188214,9.31318831 13.3125203,8.99938312 12.0407986,8.99938312 L9.71745198,8.99938312 L9.71745198,11.5249935 L9.71745198,11.5249935 Z M6.51561654,6.89707792 L13.1868186,6.89707792 C16.200813,6.89707792 17.4094466,8.24662987 17.4094466,9.69003896 C17.4094466,10.9755974 16.4673954,11.9800584 15.0078328,12.3407922 L15.0078328,12.3720779 C16.7657591,12.5285065 17.8961256,13.6111818 17.8961256,15.0545909 C17.8961256,16.5918571 16.7975403,18.2234545 13.202472,18.2234545 L6.51561654,18.2234545 L6.51561654,6.89707792 L6.51561654,6.89707792 Z" id="Shape"></path>
                    <path d="M24.1916456,11.7292987 L26.8128815,11.7292987 C28.3203531,11.7292987 28.8065577,11.2590649 28.8065577,10.3958636 C28.8065577,9.29754545 27.943248,9.09324026 26.3575094,9.09324026 L24.1916456,9.09324026 L24.1916456,11.7292987 L24.1916456,11.7292987 Z M20.8944666,6.89707792 L27.8175463,6.89707792 C30.5488305,6.89707792 32.102788,7.88542208 32.102788,9.86211039 C32.102788,11.3050455 30.9254613,12.3095065 29.2301487,12.6076688 L29.2301487,12.6389545 C30.1878532,12.701526 31.0824698,12.921474 31.4591005,13.6272987 C32.0088675,14.6630455 32.0714812,17.0473961 32.5425068,18.2234545 L29.0418333,18.2234545 C28.6813304,17.1256104 28.7282906,15.494487 28.4142736,14.7095 C28.2098305,14.1918636 27.7074981,13.924987 26.3892905,13.924987 L24.1916456,13.924987 L24.1916456,18.2229805 L20.8949409,18.2229805 L20.8949409,6.89707792 L20.8944666,6.89707792 Z" id="Shape"></path>
                    <path d="M47.3141153,13.1831364 C47.3141153,17.1047532 45.1321237,18.6571883 41.1922059,18.6571883 C37.2366347,18.6571883 35.0546431,17.2303701 35.0546431,13.6216104 L35.0546431,7.0335974 L38.3513478,7.0335974 L38.3513478,13.3869675 C38.3513478,15.4262273 39.371666,16.3358831 41.1926803,16.3358831 C43.3590184,16.3358831 44.0183593,14.9711623 44.0183593,12.9788312 L44.0183593,7.0335974 L47.3145896,7.0335974 L47.3145896,13.1831364 L47.3141153,13.1831364 Z" id="Shape"></path>
                    <path d="M56.7796895,11.9957013 L62.7924993,11.9957013 L62.7924993,17.9888117 C60.9558316,18.2708571 59.1035105,18.5225649 57.2350617,18.5225649 C53.1537888,18.5225649 50.0297461,16.9843506 50.0297461,12.7806883 C50.0297461,8.46657792 52.8241183,6.59938961 56.9997861,6.59938961 C59.8415929,6.59938961 62.8394596,7.47823377 62.9490335,10.4901948 L59.5584084,10.4901948 C59.5114481,9.25109091 58.4123884,8.79555195 57.0154395,8.79555195 C54.3780758,8.79555195 53.4203712,10.4432662 53.4203712,12.482526 C53.4203712,14.9768506 54.8021411,16.3259286 57.4390305,16.3259286 C58.2235987,16.3259286 59.1186896,16.1846688 59.7785049,16.0434091 L59.7785049,14.0980065 L56.7796895,14.0980065 L56.7796895,11.9957013 L56.7796895,11.9957013 Z" id="Shape"></path>
                    <path d="M72.4307355,11.9957013 L78.443071,11.9957013 L78.443071,17.9888117 C76.6064033,18.2708571 74.7540822,18.5225649 72.8861077,18.5225649 C68.8048348,18.5225649 65.6807921,16.9843506 65.6807921,12.7806883 C65.6807921,8.46657792 68.47469,6.59938961 72.6508321,6.59938961 C75.4921646,6.59938961 78.4905056,7.47823377 78.6000795,10.4901948 L75.2094543,10.4901948 C75.1620197,9.25109091 74.0634344,8.79555195 72.6660111,8.79555195 C70.0291218,8.79555195 69.0714172,10.4432662 69.0714172,12.482526 C69.0714172,14.9768506 70.4527127,16.3259286 73.0900765,16.3259286 C73.8746447,16.3259286 74.7697356,16.1846688 75.4295509,16.0434091 L75.4295509,14.0980065 L72.4307355,14.0980065 L72.4307355,11.9957013 L72.4307355,11.9957013 Z" id="Shape"></path>
                </g>
                <g id="Group" transform="translate(112.420000, 6.162338)" fill="#20201E" sketch:type="MSShapeGroup">
                    <path d="M0.0597675949,0.755597403 L1.69436388,0.755597403 L1.69436388,10.8063701 L8.23085165,10.8063701 L8.23085165,12.0938247 L0.0592932489,12.0938247 L0.0592932489,0.755597403 L0.0597675949,0.755597403 Z" id="Shape"></path>
                    <path d="M11.3895216,0.755597403 L13.0241179,0.755597403 L13.0241179,12.0938247 L11.3895216,12.0938247 L11.3895216,0.755597403 L11.3895216,0.755597403 Z" id="Shape"></path>
                    <path d="M17.3131543,0.755597403 L25.3751388,0.755597403 L25.3751388,2.04305195 L18.9477506,2.04305195 L18.9477506,5.74946104 L25.0611218,5.74946104 L25.0611218,7.03738961 L18.9477506,7.03738961 L18.9477506,12.0938247 L17.3131543,12.0938247 L17.3131543,0.755597403 L17.3131543,0.755597403 Z" id="Shape"></path>
                    <path d="M32.2251693,2.13785714 L27.4171983,2.13785714 L27.4171983,0.755597403 L38.6686852,0.755597403 L38.6686852,2.13785714 L33.8607143,2.13785714 L33.8607143,12.0942987 L32.2251693,12.0942987 L32.2251693,2.13785714 L32.2251693,2.13785714 Z" id="Shape"></path>
                    <path d="M41.7315373,0.755597403 L43.3661336,0.755597403 L43.3661336,12.0938247 L41.7315373,12.0938247 L41.7315373,0.755597403 L41.7315373,0.755597403 Z" id="Shape"></path>
                    <path d="M56.8959043,0.755597403 L58.5305006,0.755597403 L58.5305006,12.0938247 L56.2982284,12.0938247 L49.3533287,2.4199026 L49.3210732,2.4199026 L49.3210732,12.0938247 L47.6864769,12.0938247 L47.6864769,0.755597403 L49.9187491,0.755597403 L56.8650718,10.4295195 L56.8959043,10.4295195 L56.8959043,0.755597403 L56.8959043,0.755597403 Z" id="Shape"></path>
                    <path d="M69.3569735,6.17324026 L74.6217397,6.17324026 L74.6217397,11.2931948 C72.7196122,12.0786558 70.9289561,12.392461 69.1525304,12.392461 C64.5485282,12.392461 62.4580854,9.6122987 62.4580854,6.42494805 C62.4580854,3.58221429 64.2345111,0.457435065 68.9329082,0.457435065 C72.1233593,0.457435065 74.1345863,1.38368182 74.5116914,3.69218831 L72.7827003,3.69218831 C72.3904161,2.24735714 70.9289561,1.74488961 69.0899167,1.74488961 C65.8989912,1.74488961 64.1866022,3.83392208 64.1866022,6.40883117 C64.1866022,8.906 65.9160677,11.1045325 69.2156184,11.1045325 C70.4569819,11.1045325 71.8876094,10.821539 72.9871434,10.3821169 L72.9871434,7.46116883 L69.3574478,7.46116883 L69.3574478,6.17324026 L69.3569735,6.17324026 Z" id="Shape"></path>
                </g>
                <g id="Group" transform="translate(111.471308, 24.175325)" fill="#009DE0" sketch:type="MSShapeGroup">
                    <path d="M4.01581316,4.97585065 L4.01581316,3.78604545 L6.95106616,3.78604545 L6.95106616,7.36399351 C6.4254908,7.53322078 5.89991544,7.63229221 5.34445629,7.68206494 C4.99770937,7.71145455 4.64005249,7.75127273 3.697527,7.75127273 C2.27875814,7.75127273 0.333939578,6.86958442 0.333939578,4.02448052 C0.333939578,1.17937662 2.27875814,0.297214286 3.697527,0.297214286 C5.77089333,0.297214286 7.04973013,0.921506494 7.06016574,2.62705195 L5.42367207,2.62705195 C5.42367207,1.71407792 4.82931654,1.40738312 3.98545502,1.40738312 C2.62645376,1.40738312 1.97090759,2.40947403 1.97090759,4.02448052 C1.97090759,5.64090909 2.62645376,6.64157792 3.98545502,6.64157792 C4.60020743,6.64157792 5.00719629,6.56194156 5.4137108,6.48277922 L5.4137108,4.97585065 L4.01581316,4.97585065 L4.01581316,4.97585065 Z" id="Shape"></path>
                    <path d="M10.8198321,7.75127273 C9.19235097,7.75127273 8.22089038,6.6813961 8.22089038,5.11474026 C8.22089038,3.54903247 9.19235097,2.47820779 10.8198321,2.47820779 C12.4468388,2.47820779 13.4187738,3.54950649 13.4187738,5.11474026 C13.4187738,6.6813961 12.4463645,7.75127273 10.8198321,7.75127273 L10.8198321,7.75127273 Z M10.8198321,6.76008442 C11.7324738,6.76008442 11.8814184,5.90778571 11.8814184,5.11426623 C11.8814184,4.32169481 11.7324738,3.46844805 10.8198321,3.46844805 C9.90624169,3.46844805 9.75777139,4.32169481 9.75777139,5.11426623 C9.75729705,5.90778571 9.90624169,6.76008442 10.8198321,6.76008442 L10.8198321,6.76008442 Z" id="Shape"></path>
                    <path d="M16.1856339,0.44511039 L16.1856339,1.72355844 L14.5984722,1.72355844 L14.5984722,0.44511039 L16.1856339,0.44511039 L16.1856339,0.44511039 Z M16.1363019,2.62657792 L16.1363019,7.6029026 L14.6473299,7.6029026 L14.6473299,2.62657792 L16.1363019,2.62657792 L16.1363019,2.62657792 Z" id="Shape"></path>
                    <path d="M19.0710806,3.20157143 L19.0914775,3.23096104 C19.399328,2.77542208 19.8651358,2.47773377 20.6198203,2.47773377 C21.1164605,2.47773377 22.0784342,2.84415584 22.2563139,3.56799351 C22.3355297,3.87563636 22.3559266,4.19228571 22.3559266,4.36151299 L22.3559266,7.60337662 L20.8679032,7.60337662 L20.8679032,4.6099026 C20.8569932,4.07425325 20.7089973,3.4693961 19.9742354,3.4693961 C19.5089019,3.4693961 19.1014387,3.88559091 19.0819905,4.6099026 L19.0819905,7.60337662 L17.5930185,7.60337662 L17.5930185,2.62657792 L19.0706062,2.62657792 L19.0706062,3.20157143 L19.0710806,3.20157143 Z" id="Shape"></path>
                    <path d="M28.56559,7.15684416 C28.56559,8.31678571 28.3070714,9.58622727 26.1246055,9.56584416 C25.0241228,9.56584416 23.8425269,9.29896753 23.8135918,7.95937013 L25.2223994,7.95937013 C25.2418476,8.40542857 25.6398239,8.57465584 26.0458641,8.57465584 C27.1771792,8.57465584 27.1368598,7.54364935 27.0770922,6.81981169 L27.0576441,6.81981169 C26.7502678,7.30568831 26.2242181,7.50383117 25.6592721,7.50383117 C24.308809,7.50383117 23.6148408,6.23438961 23.6148408,5.02514935 C23.6148408,3.75665584 24.3391672,2.47725974 25.7275779,2.47725974 C26.3930853,2.47725974 26.8195224,2.69483766 27.0576441,3.2010974 L27.0770922,3.2010974 L27.0770922,2.6261039 L28.5660643,2.6261039 L28.5660643,7.15684416 L28.56559,7.15684416 Z M26.1146442,6.51216883 C26.9286219,6.51216883 27.0766179,5.67977922 27.0766179,5.03557792 C27.0766179,4.30131169 26.9286219,3.46844805 26.1146442,3.46844805 C25.3011408,3.46844805 25.1526705,4.30131169 25.1526705,5.03557792 C25.1521962,5.67977922 25.3011408,6.51216883 26.1146442,6.51216883 L26.1146442,6.51216883 Z" id="Shape"></path>
                    <path d="M36.2120473,6.98761688 C35.8951842,7.4441039 35.4293765,7.7507987 34.674692,7.7507987 C34.1794748,7.7507987 33.2175011,7.37537013 33.0381983,6.65058442 C32.9589825,6.34436364 32.93906,6.02724026 32.93906,5.85801299 L32.93906,2.62657792 L34.4270834,2.62657792 L34.4270834,5.6100974 C34.4370446,6.14574675 34.5859893,6.76008442 35.3202769,6.76008442 C35.7860846,6.76008442 36.1935478,6.33440909 36.2125217,5.6100974 L36.2125217,2.62657792 L37.7014938,2.62657792 L37.7014938,6.71031169 C37.7109807,7.008 37.7309032,7.30568831 37.7612614,7.6029026 L36.2722893,7.6029026 L36.2120473,6.98761688 L36.2120473,6.98761688 Z" id="Shape"></path>
                    <path d="M40.6168242,3.20157143 L40.6362724,3.20157143 C40.9137648,2.78442857 41.4493014,2.47773377 41.9658642,2.47773377 C43.5136552,2.47773377 44.2963261,3.77656494 44.2963261,5.11426623 C44.2963261,6.39366234 43.6132678,7.7507987 42.1541796,7.7507987 C41.509069,7.7507987 40.9540842,7.48344805 40.6362724,6.8985 L40.6168242,6.8985 L40.6168242,9.50659091 L39.1288008,9.50659091 L39.1288008,3.61729221 C39.1288008,3.29068831 39.098917,2.95365584 39.0785202,2.62657792 L40.5869404,2.62657792 L40.6168242,3.20157143 L40.6168242,3.20157143 Z M41.6883718,6.76008442 C42.6408586,6.76008442 42.7589707,5.87792208 42.7589707,5.11426623 C42.7589707,4.35061039 42.6408586,3.46844805 41.6883718,3.46844805 C40.8843554,3.46844805 40.6168242,4.42977273 40.6168242,5.11426623 C40.6168242,5.79875974 40.883881,6.76008442 41.6883718,6.76008442 L41.6883718,6.76008442 Z" id="Shape"></path>
                    <path d="M45.4674863,7.6029026 L45.4674863,6.28463636 L46.7264006,6.28463636 L46.7264006,7.6029026 L45.4674863,7.6029026 L45.4674863,7.6029026 Z" id="Shape"></path>
                </g>
            </g>
        </g>
    </g>
</svg>