<?xml version="1.0" encoding="UTF-8"?>
<svg width="1024px" height="1024px" viewBox="0 0 1024 1024" version="1.1" xmlns="http://www.w3.org/2000/svg" xmlns:xlink="http://www.w3.org/1999/xlink">
    <!-- Generator: Sketch 54.1 (76490) - https://sketchapp.com -->
    <title>PVS4 icon</title>
    <desc>Created with Sketch.</desc>
    <defs>
        <linearGradient x1="88.2734361%" y1="86.4459818%" x2="9.84520214%" y2="11.7608728%" id="linearGradient-1">
            <stop stop-color="#002341" offset="0%"></stop>
            <stop stop-color="#009DE0" offset="100%"></stop>
        </linearGradient>
        <path d="M348.159993,0 C234.666667,0 198.4,-7.96719784e-08 147.2,17.0666667 C86.8693359,38.4 38.4,86.8693359 17.0666667,147.2 C0,198.4 0,234.666667 0,348.159993 C0,348.159993 6.33850201e-07,675.839974 0,675.839974 C6.33850201e-07,789.333333 5.08583556e-07,825.6 17.0666667,876.8 C38.4395833,937.130664 86.8693359,985.6 147.2,1006.93333 C198.4,1024 234.666667,1024 348.159993,1024 L675.839974,1024 C789.333333,1024 825.6,1024 876.8,1006.93333 C937.130664,985.6 985.6,937.130664 1006.93333,876.8 C1024,825.6 1024,789.333333 1024,675.839974 L1024,348.159993 C1024,234.666667 1024,198.4 1006.93333,147.2 C985.6,87.4666667 936.447982,38.4 876.714648,17.0666667 C825.514648,4.78115301e-08 789.333333,1.80108812e-07 675.839974,0 C735.573307,1.80108812e-07 348.159993,0 348.159993,0 Z" id="path-2"></path>
        <path d="M512,870.4 C314.061136,870.4 153.6,709.938864 153.6,512 C153.6,314.061136 314.061136,153.6 512,153.6 C709.938864,153.6 870.4,314.061136 870.4,512 C870.4,709.938864 709.938864,870.4 512,870.4 Z M558.707432,666.365108 C570.871068,670.007194 602.172159,678.640288 636.633092,678.640288 C692.991274,678.640288 735.561298,646.268885 735.561298,592.851619 C735.561298,492.497302 624.066704,516.370504 624.066704,464.979317 C624.066704,443.938849 640.282183,434.226619 661.771274,434.226619 C679.611274,434.226619 701.911274,440.701439 717.721298,448.794964 L720.55948,396.18705 C696.232207,390.926259 680.016728,386.47482 654.067638,386.47482 C650.550995,386.47482 647.196535,386.604317 643.925868,386.795863 L596.836377,541.055755 C628.65645,559.530576 667.447638,563.461331 667.447638,595.684353 C667.447638,618.750899 647.17491,629.269784 626.093977,629.269784 C605.548244,629.269784 590.038256,622.571043 573.990365,615.893885 L558.707432,666.365108 Z M597.465642,305.00054 L508.535945,597.303597 L507.727739,597.303597 L487.144164,512.294604 C483.219364,527.928597 476.213109,541.668705 466.311909,552.864748 C459.102927,561.017626 450.466745,567.608453 440.627715,572.618345 L470.828673,673.784712 L542.191376,673.784712 L654.767182,305.00054 L597.465642,305.00054 Z M375.1414,521.227158 L354.060467,521.227158 L354.060467,440.699281 L371.492309,440.699281 C397.846855,440.699281 410.818697,452.839568 410.818697,480.76223 C410.818697,507.063489 395.819582,521.227158 375.1414,521.227158 Z M290.001352,391.331475 L290.001352,673.784712 L356.495897,673.784712 L356.495897,570.597662 L388.518697,570.597662 C450.550539,570.597662 477.313242,529.320683 477.313242,481.166906 C477.313242,420.060791 440.822333,391.331475 380.415012,391.331475 L290.001352,391.331475 Z" id="path-3"></path>
    </defs>
    <g id="Page-1" stroke="none" stroke-width="1" fill="none" fill-rule="evenodd">
        <g id="Artboard" transform="translate(-210.000000, -212.000000)">
            <g id="PVS4-icon" transform="translate(210.000000, 212.000000)">
                <g id="App-icon">
                    <use fill="#FFFFFF" xlink:href="#path-2"></use>
                    <use fill="url(#linearGradient-1)" xlink:href="#path-2"></use>
                </g>
                <mask id="mask-4" fill="white">
                    <use xlink:href="#path-3"></use>
                </mask>
                <use id="Combined-Shape" fill="#FFFFFF" xlink:href="#path-3"></use>
            </g>
        </g>
    </g>
</svg>